<svg id="Layer_1" data-name="Layer 1" xmlns="http://www.w3.org/2000/svg" viewBox="0 0 642 441">
  <title>java-map</title>
  <g id="paths">
    <path d="M282.29,67.82v32.82h-1V67.82l-4.12,2.06,4.62-9.24,4.62,9.24Z"/>
    <path d="M441.67,101.12l-153-38.25,1,4.5-7.84-6.73,10.08-2.23-3,3.49,153,38.25Z"/>
    <path d="M280,147.61,242.26,260.8l-.95-.32L279,147.29l-4.55.66,7.3-7.31,1.46,10.23Z"/>
    <path d="M246.41,309.88l-4.12-2.06v-.56l-.5-.25h0l-.5.25v.56l-4.12,2.06,4.62-9.24Zm-5.12-2.06v32.82h1V307.82l-.5-.25Z"/>
    <path d="M442.29,147.82v32.82h-1V147.82l-4.12,2.06,4.62-9.24,4.62,9.24Z"/>
    <path d="M435.59,228.9v-4.6L362,261.09l-.45-.89,73.58-36.79-3.68-2.76h10.33Z"/>
    <path d="M361.37,260.92l-76-114-2.28,4-1.28-10.25,9,5.13-4.57.56,76,114Z"/>
    <path d="M101.3,260.72,82.47,147.8l-3.72,2.72,3-9.88L87.86,149l-4.4-1.37,18.83,112.92Z"/>
    <path d="M274.74,68.19l.49-4.58L211,87.48a26.94,26.94,0,0,0-14.17,11.9L102.22,260.89l-.86-.51L196,98.88A27.92,27.92,0,0,1,210.7,86.54l64.19-23.87-3.36-3.14,10.27,1.11Z"/>
    <polygon points="101.79 300.64 97.17 309.88 101.29 307.82 101.29 340.64 102.29 340.64 102.29 307.82 106.41 309.88 101.79 300.64"/>
  </g>
  <g id="classes">
    <g>
      <path d="M57.5,340.5h88v40h-88Z" style="fill: #e1d5e7;stroke: #9673a6"/>
      <path d="M68.64,356.24h-2.7v7.9h1.12v-3h1.65a3.32,3.32,0,0,0,1.5-.32,2.37,2.37,0,0,0,1-.9,2.47,2.47,0,0,0,.35-1.31,2.13,2.13,0,0,0-.76-1.74A3.31,3.31,0,0,0,68.64,356.24Zm1.29,3.58a2,2,0,0,1-1.37.43H67.07v-3.11h1.44q1.92,0,1.92,1.49A1.49,1.49,0,0,1,69.93,359.82Zm7.19-2.13a7.33,7.33,0,0,1,1.21.1v1a7.44,7.44,0,0,0-1.24-.11,1.87,1.87,0,0,0-1.52.71,2.76,2.76,0,0,0-.58,1.8v3H73.92V360a8.22,8.22,0,0,0-.08-1,10.29,10.29,0,0,0-.23-1.18h1a7.15,7.15,0,0,1,.28,1.46h0a3.69,3.69,0,0,1,.57-1,1.81,1.81,0,0,1,.67-.46A2.54,2.54,0,0,1,77.12,357.68Zm5.89,0a2.68,2.68,0,0,0-2.1.82,3.57,3.57,0,0,0-.74,2.46,3.67,3.67,0,0,0,.72,2.44,2.58,2.58,0,0,0,2.08.86,2.66,2.66,0,0,0,2.12-.85,3.62,3.62,0,0,0,.74-2.45,3.72,3.72,0,0,0-.7-2.47A2.65,2.65,0,0,0,83,357.68Zm1.3,5.17a1.5,1.5,0,0,1-1.35.63,1.41,1.41,0,0,1-1.27-.64,4.36,4.36,0,0,1,0-3.74,1.48,1.48,0,0,1,1.33-.63,1.43,1.43,0,0,1,1.3.62,3.52,3.52,0,0,1,.4,1.88A3.45,3.45,0,0,1,84.31,362.85Zm6.39-5.18a2.25,2.25,0,0,0-1.19.28,2,2,0,0,0-.75.89h0q0-.14,0-.43t0-.44,0-.17h-1q0,.32,0,1.31v7.52h1.06v-2.48a8.46,8.46,0,0,0,0-1h0a1.93,1.93,0,0,0,1.94,1.08q2.3,0,2.3-3.32a4.3,4.3,0,0,0-.57-2.47A2,2,0,0,0,90.69,357.67Zm.85,5.21a1.23,1.23,0,0,1-1.14.59,1.42,1.42,0,0,1-1.27-.58,3.33,3.33,0,0,1-.39-1.83,3.8,3.8,0,0,1,.39-1.94,1.38,1.38,0,0,1,1.28-.64,1.23,1.23,0,0,1,1.13.57,3.71,3.71,0,0,1,.36,1.89A3.94,3.94,0,0,1,91.54,362.89Zm5.88-5.2a2.64,2.64,0,0,0-2.11.84,3.56,3.56,0,0,0-.73,2.41,3.66,3.66,0,0,0,.74,2.47,2.66,2.66,0,0,0,2.13.86,3.3,3.3,0,0,0,1.64-.39,2,2,0,0,0,.95-1.11l-.93-.26a1.28,1.28,0,0,1-.61.71,2.09,2.09,0,0,1-1.06.26,1.55,1.55,0,0,1-1.29-.6,2.65,2.65,0,0,1-.47-1.67h4.52v-.14a3.85,3.85,0,0,0-.71-2.53A2.58,2.58,0,0,0,97.42,357.68Zm-1.72,2.7a2.15,2.15,0,0,1,.49-1.41,1.58,1.58,0,0,1,1.24-.51q1.53,0,1.69,1.92Zm10.22-2.7a7.33,7.33,0,0,1,1.21.1v1a7.44,7.44,0,0,0-1.24-.11,1.87,1.87,0,0,0-1.52.71,2.76,2.76,0,0,0-.58,1.8v3h-1.05V360a8.22,8.22,0,0,0-.08-1,10.29,10.29,0,0,0-.23-1.18h1a7.15,7.15,0,0,1,.28,1.46h0a3.69,3.69,0,0,1,.57-1,1.81,1.81,0,0,1,.67-.46A2.54,2.54,0,0,1,105.92,357.68Zm6.5,5.68a8.59,8.59,0,0,0,1.74-.2v.8a7.45,7.45,0,0,1-2,.27,2.16,2.16,0,0,1-1.42-.4,1.57,1.57,0,0,1-.47-1.27v-3.93h-1v-.83h1l.34-1.65h.7v1.65h2.53v.83h-2.53v3.82a.87.87,0,0,0,.25.69A1.21,1.21,0,0,0,112.43,363.36Zm7.35-6.79H118.6v-1.12h1.17Zm0,6.74H122v.83h-5.75v-.83h2.47v-4.68h-1.87v-.83h2.92Zm6.45-5.62a2.64,2.64,0,0,0-2.11.84,3.56,3.56,0,0,0-.73,2.41,3.66,3.66,0,0,0,.74,2.47,2.66,2.66,0,0,0,2.13.86,3.3,3.3,0,0,0,1.64-.39,2,2,0,0,0,.95-1.11l-.93-.26a1.28,1.28,0,0,1-.61.71,2.09,2.09,0,0,1-1.06.26,1.55,1.55,0,0,1-1.29-.6,2.65,2.65,0,0,1-.47-1.67H129v-.14a3.85,3.85,0,0,0-.71-2.53A2.58,2.58,0,0,0,126.22,357.68Zm-1.72,2.7A2.15,2.15,0,0,1,125,359a1.58,1.58,0,0,1,1.24-.51q1.53,0,1.69,1.92ZM136,362.33a1.67,1.67,0,0,1-.68,1.42,3.09,3.09,0,0,1-1.89.51,3.62,3.62,0,0,1-1.84-.38,1.8,1.8,0,0,1-.82-1.19l.93-.18a1.1,1.1,0,0,0,.48.74,2.47,2.47,0,0,0,1.25.23q1.58,0,1.58-1a.74.74,0,0,0-.29-.61,2.29,2.29,0,0,0-.88-.38,11.31,11.31,0,0,1-2-.6,1.71,1.71,0,0,1-.64-.54,1.4,1.4,0,0,1-.22-.81,1.62,1.62,0,0,1,.62-1.35,2.87,2.87,0,0,1,1.8-.49,3,3,0,0,1,1.65.39,1.68,1.68,0,0,1,.77,1.13l-.95.12a.87.87,0,0,0-.42-.64,2,2,0,0,0-1-.22q-1.44,0-1.44.88a.71.71,0,0,0,.24.56,1.87,1.87,0,0,0,.78.34l.7.18a6.17,6.17,0,0,1,1.37.46,1.89,1.89,0,0,1,.66.57A1.43,1.43,0,0,1,136,362.33Z"/>
    </g>
    <g>
      <path d="M61.5,260.5h80v40h-80Z" style="fill: #e1d5e7;stroke: #9673a6"/>
      <path d="M74.88,276.49H76v7.9H74.88v-3.65H71.82v3.65H70.7v-7.9h1.12v3.32h3.06Zm8.53,7.25a1.69,1.69,0,0,0,.35,0v.66a3.54,3.54,0,0,1-.81.09,1.07,1.07,0,0,1-.85-.31,1.58,1.58,0,0,1-.3-1h0a2.55,2.55,0,0,1-.9,1,2.45,2.45,0,0,1-1.28.31,1.81,1.81,0,0,1-1.39-.5,2,2,0,0,1-.47-1.38q0-2,2.66-2.07l1.38,0v-.35a1.61,1.61,0,0,0-.31-1.1,1.29,1.29,0,0,0-1-.34,1.59,1.59,0,0,0-1,.25,1.09,1.09,0,0,0-.36.76l-1.1-.1q.27-1.71,2.48-1.71a2.5,2.5,0,0,1,1.76.55,2.06,2.06,0,0,1,.59,1.58v2.73a1.58,1.58,0,0,0,.12.71A.48.48,0,0,0,83.41,283.74Zm-1.66-2.48-1.11,0a3.21,3.21,0,0,0-1.05.15,1.19,1.19,0,0,0-.57.43,1.32,1.32,0,0,0-.2.77,1.12,1.12,0,0,0,.26.77,1,1,0,0,0,.76.29,1.85,1.85,0,0,0,1-.27,1.87,1.87,0,0,0,.67-.72,2,2,0,0,0,.24-.93Zm7.72-.09a6.17,6.17,0,0,0-1.37-.46l-.7-.18a1.87,1.87,0,0,1-.78-.34.71.71,0,0,1-.24-.56q0-.88,1.44-.88a2,2,0,0,1,1,.22.87.87,0,0,1,.42.64l.95-.12a1.68,1.68,0,0,0-.77-1.13,3,3,0,0,0-1.65-.39,2.87,2.87,0,0,0-1.8.49,1.62,1.62,0,0,0-.62,1.35,1.4,1.4,0,0,0,.22.81,1.71,1.71,0,0,0,.64.54,11.31,11.31,0,0,0,2,.6,2.29,2.29,0,0,1,.88.38.74.74,0,0,1,.29.61q0,1-1.58,1a2.47,2.47,0,0,1-1.25-.23,1.1,1.1,0,0,1-.48-.74l-.93.18a1.8,1.8,0,0,0,.82,1.19,3.62,3.62,0,0,0,1.84.38,3.09,3.09,0,0,0,1.89-.51,1.67,1.67,0,0,0,.68-1.42,1.43,1.43,0,0,0-.24-.84A1.89,1.89,0,0,0,89.47,281.17Zm6-3.23a2.08,2.08,0,0,0-2,1.2h0q.05-.81.05-1.15v-2.29H92.44v8.7H93.5v-3.67a2.1,2.1,0,0,1,.47-1.44,1.52,1.52,0,0,1,1.19-.53,1.18,1.18,0,0,1,1,.39,1.89,1.89,0,0,1,.31,1.18v4.07H97.5v-4.22Q97.5,277.93,95.45,277.93Zm6.51,5.46a.87.87,0,0,1-.25-.69v-3.82h2.53v-.83h-2.53V276.4H101l-.34,1.65h-1v.83h1v3.93a1.57,1.57,0,0,0,.47,1.27,2.16,2.16,0,0,0,1.42.4,7.45,7.45,0,0,0,2-.27v-.8a8.59,8.59,0,0,1-1.74.2A1.21,1.21,0,0,1,102,283.39Zm10.25.35a1.69,1.69,0,0,0,.35,0v.66a3.54,3.54,0,0,1-.81.09,1.07,1.07,0,0,1-.85-.31,1.58,1.58,0,0,1-.3-1h0a2.55,2.55,0,0,1-.9,1,2.45,2.45,0,0,1-1.28.31A1.81,1.81,0,0,1,107,284a2,2,0,0,1-.47-1.38q0-2,2.66-2.07l1.38,0v-.35a1.61,1.61,0,0,0-.31-1.1,1.29,1.29,0,0,0-1-.34,1.59,1.59,0,0,0-1,.25,1.09,1.09,0,0,0-.36.76l-1.1-.1q.27-1.71,2.48-1.71a2.5,2.5,0,0,1,1.76.55,2.06,2.06,0,0,1,.59,1.58v2.73a1.58,1.58,0,0,0,.12.71A.48.48,0,0,0,112.21,283.74Zm-1.66-2.48-1.11,0a3.21,3.21,0,0,0-1.05.15,1.19,1.19,0,0,0-.57.43,1.32,1.32,0,0,0-.2.77,1.12,1.12,0,0,0,.26.77,1,1,0,0,0,.76.29,1.85,1.85,0,0,0,1-.27,1.87,1.87,0,0,0,.67-.72,2,2,0,0,0,.24-.93Zm8.79-.07a4.27,4.27,0,0,1-.59,2.49,2.25,2.25,0,0,1-3.66-.25h0q0,.28,0,.59t0,.38h-1q0-.32,0-1.31v-7.39h1.05v2.48q0,.38,0,.92h0a2,2,0,0,1,2-1.17Q119.35,277.92,119.35,281.19Zm-1.09,0a3.79,3.79,0,0,0-.36-1.9,1.23,1.23,0,0,0-1.13-.59,1.39,1.39,0,0,0-1.27.64,3.75,3.75,0,0,0-.4,1.94,3.38,3.38,0,0,0,.39,1.82,1.4,1.4,0,0,0,1.27.59,1.22,1.22,0,0,0,1.15-.61A3.89,3.89,0,0,0,118.26,281.23Zm6.22-5.53h-2.75v.83h1.69v7h-2.47v.83h5.75v-.83h-2.23Zm9.3,5.75h-4.52a2.65,2.65,0,0,0,.47,1.67,1.55,1.55,0,0,0,1.29.6,2.09,2.09,0,0,0,1.06-.26,1.28,1.28,0,0,0,.61-.71l.93.26a2,2,0,0,1-.95,1.11,3.3,3.3,0,0,1-1.64.39,2.66,2.66,0,0,1-2.13-.86,3.66,3.66,0,0,1-.74-2.47,3.56,3.56,0,0,1,.73-2.41,2.64,2.64,0,0,1,2.11-.84,2.58,2.58,0,0,1,2.09.84,3.85,3.85,0,0,1,.71,2.53Zm-1.09-.81q-.16-1.92-1.69-1.92a1.58,1.58,0,0,0-1.24.51,2.15,2.15,0,0,0-.49,1.41Z"/>
    </g>
    <g>
      <path d="M201.5,260.5h80v40h-80Z" style="fill: #e1d5e7;stroke: #9673a6"/>
      <path d="M221.63,275.8h1.12v7.9h-1.12v-3.65h-3.06v3.65h-1.12v-7.9h1.12v3.32h3.06Zm8.53,7.25a1.69,1.69,0,0,0,.35,0v.66a3.54,3.54,0,0,1-.81.09,1.07,1.07,0,0,1-.85-.31,1.58,1.58,0,0,1-.3-1h0a2.55,2.55,0,0,1-.9,1,2.45,2.45,0,0,1-1.28.31,1.81,1.81,0,0,1-1.39-.5,2,2,0,0,1-.47-1.38q0-2,2.66-2.07l1.38,0v-.35a1.61,1.61,0,0,0-.31-1.1,1.29,1.29,0,0,0-1-.34,1.59,1.59,0,0,0-1,.25,1.09,1.09,0,0,0-.36.76l-1.1-.1q.27-1.71,2.48-1.71a2.5,2.5,0,0,1,1.76.55,2.06,2.06,0,0,1,.59,1.58v2.73a1.58,1.58,0,0,0,.12.71A.48.48,0,0,0,230.15,283.05Zm-1.66-2.48-1.11,0a3.21,3.21,0,0,0-1.05.15,1.19,1.19,0,0,0-.57.43,1.32,1.32,0,0,0-.2.77,1.12,1.12,0,0,0,.26.77,1,1,0,0,0,.76.29,1.85,1.85,0,0,0,1-.27,1.87,1.87,0,0,0,.67-.72,2,2,0,0,0,.24-.93Zm7.72-.09a6.17,6.17,0,0,0-1.37-.46l-.7-.18a1.87,1.87,0,0,1-.78-.34.71.71,0,0,1-.24-.56q0-.88,1.44-.88a2,2,0,0,1,1,.22.87.87,0,0,1,.42.64l.95-.12a1.68,1.68,0,0,0-.77-1.13,3,3,0,0,0-1.65-.39,2.87,2.87,0,0,0-1.8.49,1.62,1.62,0,0,0-.62,1.35,1.4,1.4,0,0,0,.22.81,1.71,1.71,0,0,0,.64.54,11.31,11.31,0,0,0,2,.6,2.29,2.29,0,0,1,.88.38.74.74,0,0,1,.29.61q0,1-1.58,1a2.47,2.47,0,0,1-1.25-.23,1.1,1.1,0,0,1-.48-.74l-.93.18a1.8,1.8,0,0,0,.82,1.19,3.62,3.62,0,0,0,1.84.38,3.09,3.09,0,0,0,1.89-.51,1.67,1.67,0,0,0,.68-1.42,1.43,1.43,0,0,0-.24-.84A1.89,1.89,0,0,0,236.21,280.48Zm6-3.23a2.08,2.08,0,0,0-2,1.2h0q.05-.81.05-1.15V275h-1.06v8.7h1.05V280a2.1,2.1,0,0,1,.47-1.44,1.52,1.52,0,0,1,1.19-.53,1.18,1.18,0,0,1,1,.39,1.89,1.89,0,0,1,.31,1.18v4.07h1.06v-4.22Q244.25,277.25,242.2,277.25Zm7.14,1.42-.26.82-.15.53q-.28-1-.4-1.35l-1.08-2.87h-1.39v7.9H247v-5.09l0-1.76q.46,1.44.56,1.71l1,2.57h.8l1-2.57q.18-.5.56-1.71l0,.59q0,.39,0,1.18v5.09h.95v-7.9h-1.32Zm9.62,4.38a1.69,1.69,0,0,0,.35,0v.66a3.54,3.54,0,0,1-.81.09,1.07,1.07,0,0,1-.85-.31,1.58,1.58,0,0,1-.3-1h0a2.55,2.55,0,0,1-.9,1,2.45,2.45,0,0,1-1.28.31,1.81,1.81,0,0,1-1.39-.5,2,2,0,0,1-.47-1.38q0-2,2.66-2.07l1.38,0v-.35a1.61,1.61,0,0,0-.31-1.1,1.29,1.29,0,0,0-1-.34,1.59,1.59,0,0,0-1,.25,1.09,1.09,0,0,0-.36.76l-1.1-.1q.27-1.71,2.48-1.71a2.5,2.5,0,0,1,1.76.55,2.06,2.06,0,0,1,.59,1.58v2.73a1.58,1.58,0,0,0,.12.71A.48.48,0,0,0,259,283.05Zm-1.66-2.48-1.11,0a3.21,3.21,0,0,0-1.05.15,1.19,1.19,0,0,0-.57.43,1.32,1.32,0,0,0-.2.77,1.12,1.12,0,0,0,.26.77,1,1,0,0,0,.76.29,1.85,1.85,0,0,0,1-.27,1.87,1.87,0,0,0,.67-.72,2,2,0,0,0,.24-.93Zm8.79-.07q0,3.32-2.3,3.32a1.93,1.93,0,0,1-1.94-1.08h0a8.46,8.46,0,0,1,0,1v2.48h-1.06v-7.52q0-1,0-1.31h1s0,.07,0,.17,0,.25,0,.44,0,.34,0,.43h0a2,2,0,0,1,.75-.89,2.25,2.25,0,0,1,1.19-.28,2,2,0,0,1,1.73.8A4.3,4.3,0,0,1,266.09,280.51Zm-1.09,0a3.71,3.71,0,0,0-.36-1.89,1.23,1.23,0,0,0-1.12-.57,1.38,1.38,0,0,0-1.28.64,3.8,3.8,0,0,0-.39,1.94,3.33,3.33,0,0,0,.39,1.83,1.42,1.42,0,0,0,1.27.58,1.23,1.23,0,0,0,1.14-.59A3.94,3.94,0,0,0,265,280.51Z"/>
    </g>
    <g>
      <path d="M181.5,340.5h120v40h-120Z" style="fill: #e1d5e7;stroke: #9673a6"/>
      <path d="M197.76,363h3.94v.91h-5.06V356h1.12Zm9.06-5.43h-2.92v.83h1.87v4.68h-2.47v.83H209v-.83h-2.23Zm0-2.36h-1.17v1.13h1.17Zm7,2.24a2.11,2.11,0,0,0-2,1.2h0q0-.46,0-.63v-.3a1.54,1.54,0,0,0,0-.16h-1q0,.25,0,1.35v5h1.05v-3.67a2.1,2.1,0,0,1,.47-1.44,1.52,1.52,0,0,1,1.19-.53,1.18,1.18,0,0,1,1,.39,1.89,1.89,0,0,1,.31,1.18v4.07h1.06v-4.22a2.44,2.44,0,0,0-.5-1.68A1.94,1.94,0,0,0,213.79,357.43Zm9.52.12h-1.24l-2.78,3.08v-5.43h-1.05v8.7h1.05v-2.35l.77-.57,2.14,2.92h1.24l-2.71-3.62Zm6.45.72a3.85,3.85,0,0,1,.71,2.53v.14h-4.52a2.65,2.65,0,0,0,.47,1.67,1.55,1.55,0,0,0,1.29.6,2.09,2.09,0,0,0,1.06-.26,1.28,1.28,0,0,0,.61-.71l.93.26a2,2,0,0,1-.95,1.11,3.3,3.3,0,0,1-1.64.39,2.66,2.66,0,0,1-2.13-.86,3.66,3.66,0,0,1-.74-2.47,3.56,3.56,0,0,1,.73-2.41,2.64,2.64,0,0,1,2.11-.84A2.58,2.58,0,0,1,229.76,358.27Zm-.38,1.86q-.16-1.92-1.69-1.92a1.58,1.58,0,0,0-1.24.51,2.15,2.15,0,0,0-.49,1.41Zm8,2.45q0,1,0,1.31h-1a2.83,2.83,0,0,1,0-.43q0-.34,0-.59h0a2,2,0,0,1-.76.89,2.31,2.31,0,0,1-1.18.28,2,2,0,0,1-1.74-.81,4.38,4.38,0,0,1-.56-2.46q0-3.32,2.3-3.32a2.52,2.52,0,0,1,1.19.25,1.81,1.81,0,0,1,.76.83h0v-3.34h1.05Zm-1.05-1.94a3.3,3.3,0,0,0-.4-1.83,1.43,1.43,0,0,0-1.27-.57,1.22,1.22,0,0,0-1.14.6,5.31,5.31,0,0,0,0,3.79,1.21,1.21,0,0,0,1.13.59,1.41,1.41,0,0,0,1.27-.62A3.64,3.64,0,0,0,236.31,360.64Zm7.27-1.34h-3.06V356h-1.12v7.9h1.12v-3.65h3.06v3.65h1.12V356h-1.12Zm8.53,3.94a1.69,1.69,0,0,0,.35,0v.66a3.54,3.54,0,0,1-.81.09,1.07,1.07,0,0,1-.85-.31,1.58,1.58,0,0,1-.3-1h0a2.55,2.55,0,0,1-.9,1,2.45,2.45,0,0,1-1.28.31,1.81,1.81,0,0,1-1.39-.5,2,2,0,0,1-.47-1.38q0-2,2.66-2.07l1.38,0v-.35a1.61,1.61,0,0,0-.31-1.1,1.29,1.29,0,0,0-1-.34,1.59,1.59,0,0,0-1,.25,1.09,1.09,0,0,0-.36.76l-1.1-.1q.27-1.71,2.48-1.71a2.5,2.5,0,0,1,1.76.55,2.06,2.06,0,0,1,.59,1.58v2.73a1.58,1.58,0,0,0,.12.71A.48.48,0,0,0,252.11,363.24Zm-1.66-2.48-1.11,0a3.21,3.21,0,0,0-1.05.15,1.19,1.19,0,0,0-.57.43,1.32,1.32,0,0,0-.2.77,1.12,1.12,0,0,0,.26.77,1,1,0,0,0,.76.29,1.85,1.85,0,0,0,1-.27,1.87,1.87,0,0,0,.67-.72,2,2,0,0,0,.24-.93Zm7.72-.09a6.17,6.17,0,0,0-1.37-.46l-.7-.18a1.87,1.87,0,0,1-.78-.34.71.71,0,0,1-.24-.56q0-.88,1.44-.88a2,2,0,0,1,1,.22.87.87,0,0,1,.42.64l.95-.12a1.68,1.68,0,0,0-.77-1.13,3,3,0,0,0-1.65-.39,2.87,2.87,0,0,0-1.8.49,1.62,1.62,0,0,0-.62,1.35,1.4,1.4,0,0,0,.22.81,1.71,1.71,0,0,0,.64.54,11.31,11.31,0,0,0,2,.6,2.29,2.29,0,0,1,.88.38.74.74,0,0,1,.29.61q0,1-1.58,1a2.47,2.47,0,0,1-1.25-.23,1.1,1.1,0,0,1-.48-.74l-.93.18a1.8,1.8,0,0,0,.82,1.19,3.62,3.62,0,0,0,1.84.38,3.09,3.09,0,0,0,1.89-.51,1.67,1.67,0,0,0,.68-1.42,1.43,1.43,0,0,0-.24-.84A1.89,1.89,0,0,0,258.17,360.67Zm6-3.23a2.08,2.08,0,0,0-2,1.2h0q.05-.81.05-1.15v-2.29h-1.06v8.7h1.05v-3.67a2.1,2.1,0,0,1,.47-1.44,1.52,1.52,0,0,1,1.19-.53,1.18,1.18,0,0,1,1,.39,1.89,1.89,0,0,1,.31,1.18v4.07h1.06v-4.22Q266.21,357.43,264.16,357.43Zm7.14,1.42-.26.82-.15.53q-.28-1-.4-1.35L269.41,356H268v7.9H269V358.8l0-1.76q.46,1.44.56,1.71l1,2.57h.8l1-2.57q.18-.5.56-1.71l0,.59q0,.39,0,1.18v5.09h.95V356h-1.32Zm9.62,4.38a1.69,1.69,0,0,0,.35,0v.66a3.54,3.54,0,0,1-.81.09,1.07,1.07,0,0,1-.85-.31,1.58,1.58,0,0,1-.3-1h0a2.55,2.55,0,0,1-.9,1,2.45,2.45,0,0,1-1.28.31,1.81,1.81,0,0,1-1.39-.5,2,2,0,0,1-.47-1.38q0-2,2.66-2.07l1.38,0v-.35a1.61,1.61,0,0,0-.31-1.1,1.29,1.29,0,0,0-1-.34,1.59,1.59,0,0,0-1,.25,1.09,1.09,0,0,0-.36.76l-1.1-.1q.27-1.71,2.48-1.71a2.5,2.5,0,0,1,1.76.55,2.06,2.06,0,0,1,.59,1.58v2.73a1.58,1.58,0,0,0,.12.71A.48.48,0,0,0,280.91,363.24Zm-1.66-2.48-1.11,0a3.21,3.21,0,0,0-1.05.15,1.19,1.19,0,0,0-.57.43,1.32,1.32,0,0,0-.2.77,1.12,1.12,0,0,0,.26.77,1,1,0,0,0,.76.29,1.85,1.85,0,0,0,1-.27,1.87,1.87,0,0,0,.67-.72,2,2,0,0,0,.24-.93Zm8.79-.07q0,3.32-2.3,3.32a1.93,1.93,0,0,1-1.94-1.08h0a8.46,8.46,0,0,1,0,1v2.48h-1.06v-7.52q0-1,0-1.31h1s0,.07,0,.17,0,.25,0,.44,0,.34,0,.43h0a2,2,0,0,1,.75-.89,2.25,2.25,0,0,1,1.19-.28,2,2,0,0,1,1.73.8A4.3,4.3,0,0,1,288.05,360.69Zm-1.09,0a3.71,3.71,0,0,0-.36-1.89,1.23,1.23,0,0,0-1.12-.57,1.38,1.38,0,0,0-1.28.64,3.8,3.8,0,0,0-.39,1.94,3.33,3.33,0,0,0,.39,1.83,1.42,1.42,0,0,0,1.27.58,1.23,1.23,0,0,0,1.14-.59A3.94,3.94,0,0,0,287,360.69Z"/>
    </g>
    <g>
      <path d="M321.5,260.5h80v40h-80Z" style="fill: #e1d5e7;stroke: #9673a6"/>
      <path d="M338.45,275.92h6.3v.91h-2.6v7H341v-7h-2.6Zm10.73,1.6a1.81,1.81,0,0,0-.67.46,3.69,3.69,0,0,0-.57,1h0a7.15,7.15,0,0,0-.28-1.46h-1a10.29,10.29,0,0,1,.23,1.18,8.22,8.22,0,0,1,.08,1v4.11H348v-3a2.76,2.76,0,0,1,.58-1.8,1.87,1.87,0,0,1,1.52-.71,7.44,7.44,0,0,1,1.24.11v-1a7.33,7.33,0,0,0-1.21-.1A2.54,2.54,0,0,0,349.17,277.52Zm8.93.68a3.85,3.85,0,0,1,.71,2.53v.14h-4.52a2.65,2.65,0,0,0,.47,1.67,1.55,1.55,0,0,0,1.29.6,2.09,2.09,0,0,0,1.06-.26,1.28,1.28,0,0,0,.61-.71l.93.26a2,2,0,0,1-.95,1.11,3.3,3.3,0,0,1-1.64.39,2.66,2.66,0,0,1-2.13-.86,3.66,3.66,0,0,1-.74-2.47,3.56,3.56,0,0,1,.73-2.41,2.64,2.64,0,0,1,2.11-.84A2.58,2.58,0,0,1,358.1,278.2Zm-.38,1.86q-.16-1.92-1.69-1.92a1.58,1.58,0,0,0-1.24.51,2.15,2.15,0,0,0-.49,1.41Zm7.58-1.86a3.85,3.85,0,0,1,.71,2.53v.14h-4.52a2.65,2.65,0,0,0,.47,1.67,1.55,1.55,0,0,0,1.29.6,2.09,2.09,0,0,0,1.06-.26,1.28,1.28,0,0,0,.61-.71l.93.26a2,2,0,0,1-.95,1.11,3.3,3.3,0,0,1-1.64.39,2.66,2.66,0,0,1-2.13-.86,3.66,3.66,0,0,1-.74-2.47,3.56,3.56,0,0,1,.73-2.41,2.64,2.64,0,0,1,2.11-.84A2.58,2.58,0,0,1,365.3,278.2Zm-.38,1.86q-.16-1.92-1.69-1.92a1.58,1.58,0,0,0-1.24.51,2.15,2.15,0,0,0-.49,1.41Zm5.92-1.28-.26.82-.15.53q-.28-1-.4-1.35l-1.08-2.87h-1.39v7.9h.94v-5.09l0-1.76q.46,1.44.56,1.71l1,2.57h.8l1-2.57q.18-.5.56-1.71l0,.59q0,.39,0,1.18v5.09h.95v-7.9h-1.32Zm9.62,4.38a1.69,1.69,0,0,0,.35,0v.66a3.54,3.54,0,0,1-.81.09,1.07,1.07,0,0,1-.85-.31,1.58,1.58,0,0,1-.3-1h0a2.55,2.55,0,0,1-.9,1,2.45,2.45,0,0,1-1.28.31,1.81,1.81,0,0,1-1.39-.5,2,2,0,0,1-.47-1.38q0-2,2.66-2.07l1.38,0v-.35a1.61,1.61,0,0,0-.31-1.1,1.29,1.29,0,0,0-1-.34,1.59,1.59,0,0,0-1,.25,1.09,1.09,0,0,0-.36.76l-1.1-.1q.27-1.71,2.48-1.71a2.5,2.5,0,0,1,1.76.55,2.06,2.06,0,0,1,.59,1.58v2.73a1.58,1.58,0,0,0,.12.71A.48.48,0,0,0,380.46,283.17Zm-1.66-2.48-1.11,0a3.21,3.21,0,0,0-1.05.15,1.19,1.19,0,0,0-.57.43,1.32,1.32,0,0,0-.2.77,1.12,1.12,0,0,0,.26.77,1,1,0,0,0,.76.29,1.85,1.85,0,0,0,1-.27,1.87,1.87,0,0,0,.67-.72,2,2,0,0,0,.24-.93Zm8.79-.07q0,3.32-2.3,3.32a1.93,1.93,0,0,1-1.94-1.08h0a8.46,8.46,0,0,1,0,1v2.48h-1.06v-7.52q0-1,0-1.31h1s0,.07,0,.17,0,.25,0,.44,0,.34,0,.43h0a2,2,0,0,1,.75-.89,2.25,2.25,0,0,1,1.19-.28,2,2,0,0,1,1.73.8A4.3,4.3,0,0,1,387.59,280.62Zm-1.09,0a3.71,3.71,0,0,0-.36-1.89,1.23,1.23,0,0,0-1.12-.57,1.38,1.38,0,0,0-1.28.64,3.8,3.8,0,0,0-.39,1.94,3.33,3.33,0,0,0,.39,1.83,1.42,1.42,0,0,0,1.27.58,1.23,1.23,0,0,0,1.14-.59A3.94,3.94,0,0,0,386.5,280.62Z"/>
    </g>
  </g>
  <g id="abstracts">
    <g>
      <rect x="31.5" y="100.5" width="100" height="40" rx="6" ry="6" style="fill: #dae8fc;stroke: #6c8ebf"/>
      <path d="M49.27,116H47.45v7.9h2.17a3.21,3.21,0,0,0,2.58-1,4.45,4.45,0,0,0,.9-3,4,4,0,0,0-.95-2.91A3.86,3.86,0,0,0,49.27,116Zm2.09,6.21a2.19,2.19,0,0,1-1.85.78h-.95V116.9h.71a2.65,2.65,0,0,1,2,.71,3.28,3.28,0,0,1,.64,2.25A3.78,3.78,0,0,1,51.36,122.2Zm6.7-5.88H56.89v-1.12h1.17Zm0,6.74h2.23v.83H54.54v-.83H57v-4.68H55.14v-.83h2.92Zm8.05-1.12,1.11.07a2.14,2.14,0,0,1-.42,1,2.35,2.35,0,0,1-.92.72,3.07,3.07,0,0,1-1.28.26,2.77,2.77,0,0,1-2.19-.84,4.33,4.33,0,0,1,0-4.88,2.77,2.77,0,0,1,2.19-.85,2.87,2.87,0,0,1,1.76.51,2.15,2.15,0,0,1,.86,1.38l-1.12.08a1.35,1.35,0,0,0-.47-.84,1.64,1.64,0,0,0-1.07-.31,1.58,1.58,0,0,0-1.36.57,3.14,3.14,0,0,0-.43,1.86,3.31,3.31,0,0,0,.43,1.9,1.55,1.55,0,0,0,1.35.6,1.71,1.71,0,0,0,1-.31A1.39,1.39,0,0,0,66.12,121.93Zm6.21,1.18a8.59,8.59,0,0,0,1.74-.2v.8a7.45,7.45,0,0,1-2,.27,2.16,2.16,0,0,1-1.42-.4,1.57,1.57,0,0,1-.47-1.27v-3.93h-1v-.83h1l.34-1.65h.7v1.65h2.53v.83H71.26v3.82a.87.87,0,0,0,.25.69A1.21,1.21,0,0,0,72.32,123.11Zm7.35-6.79H78.5v-1.12h1.17Zm0,6.74H81.9v.83H76.14v-.83h2.47v-4.68H76.75v-.83h2.92Zm6.44-5.62a2.68,2.68,0,0,0-2.1.82,3.57,3.57,0,0,0-.74,2.46,3.67,3.67,0,0,0,.72,2.44,2.58,2.58,0,0,0,2.08.86,2.66,2.66,0,0,0,2.12-.85,3.62,3.62,0,0,0,.74-2.45,3.72,3.72,0,0,0-.7-2.47A2.65,2.65,0,0,0,86.11,117.43Zm1.3,5.17a1.5,1.5,0,0,1-1.35.63,1.41,1.41,0,0,1-1.27-.64,4.36,4.36,0,0,1,0-3.74,1.48,1.48,0,0,1,1.33-.63,1.43,1.43,0,0,1,1.3.62,3.52,3.52,0,0,1,.4,1.88A3.45,3.45,0,0,1,87.41,122.6ZM95.36,118a2.44,2.44,0,0,1,.5,1.68v4.22H94.79v-4.07a1.89,1.89,0,0,0-.31-1.18,1.18,1.18,0,0,0-1-.39,1.52,1.52,0,0,0-1.19.53,2.1,2.1,0,0,0-.47,1.44v3.67H90.79v-5q0-1.11,0-1.35h1a1.54,1.54,0,0,1,0,.16v.3q0,.17,0,.63h0a2.11,2.11,0,0,1,2-1.2A1.94,1.94,0,0,1,95.36,118Zm7.54,5a1.58,1.58,0,0,1-.12-.71v-2.73a2.06,2.06,0,0,0-.59-1.58,2.5,2.5,0,0,0-1.76-.55q-2.21,0-2.48,1.71l1.1.1a1.09,1.09,0,0,1,.36-.76,1.59,1.59,0,0,1,1-.25,1.29,1.29,0,0,1,1,.34,1.61,1.61,0,0,1,.31,1.1V120l-1.38,0q-2.66,0-2.66,2.07a2,2,0,0,0,.47,1.38,1.81,1.81,0,0,0,1.39.5,2.45,2.45,0,0,0,1.28-.31,2.55,2.55,0,0,0,.9-1h0a1.58,1.58,0,0,0,.3,1,1.07,1.07,0,0,0,.85.31,3.54,3.54,0,0,0,.81-.09v-.66a1.69,1.69,0,0,1-.35,0A.48.48,0,0,1,102.89,123Zm-1.19-1.72a2,2,0,0,1-.24.93,1.87,1.87,0,0,1-.67.72,1.85,1.85,0,0,1-1,.27,1,1,0,0,1-.76-.29,1.12,1.12,0,0,1-.26-.77,1.32,1.32,0,0,1,.2-.77,1.19,1.19,0,0,1,.57-.43,3.21,3.21,0,0,1,1.05-.15l1.11,0Zm7.32-3.85a7.33,7.33,0,0,1,1.21.1v1a7.44,7.44,0,0,0-1.24-.11,1.87,1.87,0,0,0-1.52.71,2.76,2.76,0,0,0-.58,1.8v3h-1.05v-4.11a8.22,8.22,0,0,0-.08-1,10.29,10.29,0,0,0-.23-1.18h1a7.15,7.15,0,0,1,.28,1.46h0a3.69,3.69,0,0,1,.57-1,1.81,1.81,0,0,1,.67-.46A2.54,2.54,0,0,1,109,117.43Zm9.09.12-2.67,6.34a5.58,5.58,0,0,1-1.08,1.93,1.83,1.83,0,0,1-1.34.56,3.45,3.45,0,0,1-.73-.06v-.79a3.17,3.17,0,0,0,.49,0,1.32,1.32,0,0,0,.87-.35,2.61,2.61,0,0,0,.69-1.1l.11-.29-2.75-6.28h1.13l1.55,3.76q.53,1.31.57,1.49l.24-.64,1.82-4.61Z"/>
    </g>
    <g>
      <rect x="231.5" y="100.5" width="100" height="40" rx="6" ry="6" style="fill: #dae8fc;stroke: #6c8ebf"/>
      <path d="M246.49,117l-3,7.9h1.15l.8-2.24h3.3l.81,2.24h1.14l-2.94-7.9Zm-.74,4.79.88-2.48.4-1.24.07-.23.34,1,1,2.93Zm9-3.36a2,2,0,0,0-2,1.17h0q0-.54,0-.92v-2.48h-1.05v7.39q0,1,0,1.31h1s0-.17,0-.37,0-.4,0-.59h0a2.25,2.25,0,0,0,3.66.25,4.27,4.27,0,0,0,.59-2.49Q257.09,118.42,254.8,118.42Zm.85,5.19a1.22,1.22,0,0,1-1.15.61,1.4,1.4,0,0,1-1.27-.59,3.38,3.38,0,0,1-.39-1.82,3.75,3.75,0,0,1,.4-1.94,1.39,1.39,0,0,1,1.27-.64,1.23,1.23,0,0,1,1.13.59,3.79,3.79,0,0,1,.36,1.9A3.89,3.89,0,0,1,255.64,123.62Zm8.23-1.38a1.43,1.43,0,0,1,.24.84,1.67,1.67,0,0,1-.68,1.42,3.09,3.09,0,0,1-1.89.51,3.62,3.62,0,0,1-1.84-.38,1.8,1.8,0,0,1-.82-1.19l.93-.18a1.1,1.1,0,0,0,.48.74,2.47,2.47,0,0,0,1.25.23q1.58,0,1.58-1a.74.74,0,0,0-.29-.61,2.29,2.29,0,0,0-.88-.38,11.31,11.31,0,0,1-2-.6,1.71,1.71,0,0,1-.64-.54,1.4,1.4,0,0,1-.22-.81,1.62,1.62,0,0,1,.62-1.35,2.87,2.87,0,0,1,1.8-.49,3,3,0,0,1,1.65.39A1.68,1.68,0,0,1,264,120l-.95.12a.87.87,0,0,0-.42-.64,2,2,0,0,0-1-.22q-1.44,0-1.44.88a.71.71,0,0,0,.24.56,1.87,1.87,0,0,0,.78.34l.7.18a6.17,6.17,0,0,1,1.37.46A1.89,1.89,0,0,1,263.87,122.24Zm5.45,1.87a8.59,8.59,0,0,0,1.74-.2v.8a7.45,7.45,0,0,1-2,.27,2.16,2.16,0,0,1-1.42-.4,1.57,1.57,0,0,1-.47-1.27v-3.93h-1v-.83h1l.34-1.65h.7v1.65h2.53v.83h-2.53v3.82a.87.87,0,0,0,.25.69A1.21,1.21,0,0,0,269.32,124.11Zm7.9-5.68a7.33,7.33,0,0,1,1.21.1v1a7.44,7.44,0,0,0-1.24-.11,1.87,1.87,0,0,0-1.52.71,2.76,2.76,0,0,0-.58,1.8v3H274v-4.11a8.22,8.22,0,0,0-.08-1,10.29,10.29,0,0,0-.23-1.18h1A7.15,7.15,0,0,1,275,120h0a3.69,3.69,0,0,1,.57-1,1.81,1.81,0,0,1,.67-.46A2.54,2.54,0,0,1,277.22,118.43Zm8.27,5.57a1.58,1.58,0,0,1-.12-.71v-2.73a2.06,2.06,0,0,0-.59-1.58,2.5,2.5,0,0,0-1.76-.55q-2.21,0-2.48,1.71l1.1.1a1.09,1.09,0,0,1,.36-.76,1.59,1.59,0,0,1,1-.25,1.29,1.29,0,0,1,1,.34,1.61,1.61,0,0,1,.31,1.1V121l-1.38,0q-2.66,0-2.66,2.07a2,2,0,0,0,.47,1.38,1.81,1.81,0,0,0,1.39.5,2.45,2.45,0,0,0,1.28-.31,2.55,2.55,0,0,0,.9-1h0a1.58,1.58,0,0,0,.3,1,1.07,1.07,0,0,0,.85.31,3.54,3.54,0,0,0,.81-.09v-.66a1.69,1.69,0,0,1-.35,0A.48.48,0,0,1,285.49,124Zm-1.19-1.72a2,2,0,0,1-.24.93,1.87,1.87,0,0,1-.67.72,1.85,1.85,0,0,1-1,.27,1,1,0,0,1-.76-.29,1.12,1.12,0,0,1-.26-.77,1.32,1.32,0,0,1,.2-.77,1.19,1.19,0,0,1,.57-.43,3.21,3.21,0,0,1,1.05-.15l1.11,0Zm7.62.65L293,123a2.14,2.14,0,0,1-.42,1,2.35,2.35,0,0,1-.92.72,3.07,3.07,0,0,1-1.28.26,2.77,2.77,0,0,1-2.19-.84,4.33,4.33,0,0,1,0-4.88,2.77,2.77,0,0,1,2.19-.85,2.87,2.87,0,0,1,1.76.51,2.15,2.15,0,0,1,.86,1.38l-1.12.08a1.35,1.35,0,0,0-.47-.84,1.64,1.64,0,0,0-1.07-.31,1.58,1.58,0,0,0-1.36.57,3.14,3.14,0,0,0-.43,1.86,3.31,3.31,0,0,0,.43,1.9,1.55,1.55,0,0,0,1.35.6,1.71,1.71,0,0,0,1-.31A1.39,1.39,0,0,0,291.92,122.93Zm6.21,1.18a8.59,8.59,0,0,0,1.74-.2v.8a7.45,7.45,0,0,1-2,.27,2.16,2.16,0,0,1-1.42-.4,1.57,1.57,0,0,1-.47-1.27v-3.93h-1v-.83h1l.34-1.65h.7v1.65h2.53v.83h-2.53v3.82a.87.87,0,0,0,.25.69A1.21,1.21,0,0,0,298.13,124.11Zm8.1-7.12h1.32v7.9h-.95V119.8q0-.79,0-1.18l0-.59q-.37,1.21-.56,1.71l-1,2.57h-.8l-1-2.57q-.11-.27-.56-1.71l0,1.76v5.09h-.94V117h1.39l1.08,2.87q.12.31.4,1.35l.15-.53.26-.82Zm8.06,7a1.58,1.58,0,0,1-.12-.71v-2.73a2.06,2.06,0,0,0-.59-1.58,2.5,2.5,0,0,0-1.76-.55q-2.21,0-2.48,1.71l1.1.1a1.09,1.09,0,0,1,.36-.76,1.59,1.59,0,0,1,1-.25,1.29,1.29,0,0,1,1,.34,1.61,1.61,0,0,1,.31,1.1V121l-1.38,0q-2.66,0-2.66,2.07a2,2,0,0,0,.47,1.38,1.81,1.81,0,0,0,1.39.5,2.45,2.45,0,0,0,1.28-.31,2.55,2.55,0,0,0,.9-1h0a1.58,1.58,0,0,0,.3,1,1.07,1.07,0,0,0,.85.31,3.54,3.54,0,0,0,.81-.09v-.66a1.69,1.69,0,0,1-.35,0A.48.48,0,0,1,314.29,124Zm-1.19-1.72a2,2,0,0,1-.24.93,1.87,1.87,0,0,1-.67.72,1.85,1.85,0,0,1-1,.27,1,1,0,0,1-.76-.29,1.12,1.12,0,0,1-.26-.77,1.32,1.32,0,0,1,.2-.77,1.19,1.19,0,0,1,.57-.43,3.21,3.21,0,0,1,1.05-.15l1.11,0Zm8.23-3.06a2,2,0,0,0-1.73-.8,2.25,2.25,0,0,0-1.19.28,2,2,0,0,0-.75.89h0q0-.14,0-.43t0-.44,0-.17h-1q0,.32,0,1.31v7.52h1.06V124.9a8.46,8.46,0,0,0,0-1h0A1.93,1.93,0,0,0,319.6,125q2.3,0,2.3-3.32A4.3,4.3,0,0,0,321.33,119.22Zm-.88,4.42a1.23,1.23,0,0,1-1.14.59,1.42,1.42,0,0,1-1.27-.58,3.33,3.33,0,0,1-.39-1.83,3.8,3.8,0,0,1,.39-1.94,1.38,1.38,0,0,1,1.28-.64,1.23,1.23,0,0,1,1.13.57,3.71,3.71,0,0,1,.36,1.89A3.94,3.94,0,0,1,320.45,123.64Z"/>
    </g>
    <g>
      <rect x="391.5" y="100.5" width="100" height="40" rx="6" ry="6" style="fill: #dae8fc;stroke: #6c8ebf"/>
      <path d="M417.75,121.27a2.28,2.28,0,0,1,.11.76,2,2,0,0,1-.79,1.68,3.63,3.63,0,0,1-2.25.6q-2.68,0-3.11-2.1l1.08-.22a1.67,1.67,0,0,0,.68,1.1,2.45,2.45,0,0,0,1.38.34,2.33,2.33,0,0,0,1.42-.36,1.21,1.21,0,0,0,.48-1,1.1,1.1,0,0,0-.19-.67,1.46,1.46,0,0,0-.5-.42,3.28,3.28,0,0,0-.7-.27l-.79-.2a8.18,8.18,0,0,1-1.34-.44,2.22,2.22,0,0,1-.64-.44,1.68,1.68,0,0,1-.36-.57,2.11,2.11,0,0,1-.12-.76,1.85,1.85,0,0,1,.71-1.56,3.29,3.29,0,0,1,2-.55,3.45,3.45,0,0,1,1.9.43,2.34,2.34,0,0,1,.91,1.46l-1.1.19a1.48,1.48,0,0,0-.56-1,2,2,0,0,0-1.15-.3q-1.66,0-1.66,1.25a1,1,0,0,0,.16.57,1.2,1.2,0,0,0,.42.36,2.84,2.84,0,0,0,.62.24l.76.2a11.31,11.31,0,0,1,1.17.34,3.64,3.64,0,0,1,.64.31,2,2,0,0,1,.48.42A1.83,1.83,0,0,1,417.75,121.27Zm6.44-2.71a3.72,3.72,0,0,1,.7,2.47,3.62,3.62,0,0,1-.74,2.45,2.66,2.66,0,0,1-2.12.85,2.58,2.58,0,0,1-2.08-.86,3.67,3.67,0,0,1-.72-2.44,3.57,3.57,0,0,1,.74-2.46,2.68,2.68,0,0,1,2.1-.82A2.65,2.65,0,0,1,424.18,118.56Zm-.41,2.47a3.52,3.52,0,0,0-.4-1.88,1.43,1.43,0,0,0-1.3-.62,1.48,1.48,0,0,0-1.33.63,4.36,4.36,0,0,0,0,3.74,1.41,1.41,0,0,0,1.27.64,1.5,1.5,0,0,0,1.35-.63A3.45,3.45,0,0,0,423.77,121Zm5.85-3.13a1.81,1.81,0,0,0-.67.46,3.69,3.69,0,0,0-.57,1h0a7.15,7.15,0,0,0-.28-1.46h-1a10.29,10.29,0,0,1,.23,1.18,8.22,8.22,0,0,1,.08,1v4.11h1.05v-3a2.76,2.76,0,0,1,.58-1.8,1.87,1.87,0,0,1,1.52-.71,7.44,7.44,0,0,1,1.24.11v-1a7.33,7.33,0,0,0-1.21-.1A2.54,2.54,0,0,0,429.63,117.9Zm6.63,5.3a.87.87,0,0,1-.25-.69V118.7h2.53v-.83H436v-1.65h-.7l-.34,1.65h-1v.83h1v3.93a1.57,1.57,0,0,0,.47,1.27,2.16,2.16,0,0,0,1.42.4,7.45,7.45,0,0,0,2-.27v-.8a8.59,8.59,0,0,1-1.74.2A1.21,1.21,0,0,1,436.25,123.2Zm9.5-4.62a3.85,3.85,0,0,1,.71,2.53v.14h-4.52a2.65,2.65,0,0,0,.47,1.67,1.55,1.55,0,0,0,1.29.6,2.09,2.09,0,0,0,1.06-.26,1.28,1.28,0,0,0,.61-.71l.93.26a2,2,0,0,1-.95,1.11,3.3,3.3,0,0,1-1.64.39,2.66,2.66,0,0,1-2.13-.86,3.66,3.66,0,0,1-.74-2.47,3.56,3.56,0,0,1,.73-2.41,2.64,2.64,0,0,1,2.11-.84A2.58,2.58,0,0,1,445.76,118.59Zm-.38,1.86q-.16-1.92-1.69-1.92a1.58,1.58,0,0,0-1.24.51,2.15,2.15,0,0,0-.49,1.41Zm8,2.45q0,1,0,1.31h-1a2.83,2.83,0,0,1,0-.43q0-.34,0-.59h0a2,2,0,0,1-.76.89,2.31,2.31,0,0,1-1.18.28,2,2,0,0,1-1.74-.81,4.38,4.38,0,0,1-.56-2.46q0-3.32,2.3-3.32a2.52,2.52,0,0,1,1.19.25,1.81,1.81,0,0,1,.76.83h0v-3.34h1.05ZM452.31,121a3.3,3.3,0,0,0-.4-1.83,1.43,1.43,0,0,0-1.27-.57,1.22,1.22,0,0,0-1.14.6,5.31,5.31,0,0,0,0,3.79,1.21,1.21,0,0,0,1.13.59,1.41,1.41,0,0,0,1.27-.62A3.64,3.64,0,0,0,452.31,121Zm6.18-1.79-.26.82-.15.53q-.28-1-.4-1.35l-1.08-2.87h-1.39v7.9h.94v-5.09l0-1.76q.46,1.44.56,1.71l1,2.57h.8l1-2.57q.18-.5.56-1.71l0,.59q0,.39,0,1.18v5.09h.95v-7.9h-1.32Zm9.62,4.38a1.69,1.69,0,0,0,.35,0v.66a3.54,3.54,0,0,1-.81.09,1.07,1.07,0,0,1-.85-.31,1.58,1.58,0,0,1-.3-1h0a2.55,2.55,0,0,1-.9,1,2.45,2.45,0,0,1-1.28.31,1.81,1.81,0,0,1-1.39-.5,2,2,0,0,1-.47-1.38q0-2,2.66-2.07l1.38,0V120a1.61,1.61,0,0,0-.31-1.1,1.29,1.29,0,0,0-1-.34,1.59,1.59,0,0,0-1,.25,1.09,1.09,0,0,0-.36.76l-1.1-.1q.27-1.71,2.48-1.71a2.5,2.5,0,0,1,1.76.55,2.06,2.06,0,0,1,.59,1.58v2.73a1.58,1.58,0,0,0,.12.71A.48.48,0,0,0,468.11,123.55Zm-1.66-2.48-1.11,0a3.21,3.21,0,0,0-1.05.15,1.19,1.19,0,0,0-.57.43,1.32,1.32,0,0,0-.2.77,1.12,1.12,0,0,0,.26.77,1,1,0,0,0,.76.29,1.85,1.85,0,0,0,1-.27,1.87,1.87,0,0,0,.67-.72,2,2,0,0,0,.24-.93Zm8.79-.07q0,3.32-2.3,3.32a1.93,1.93,0,0,1-1.94-1.08h0a8.46,8.46,0,0,1,0,1v2.48h-1.06v-7.52q0-1,0-1.31h1s0,.07,0,.17,0,.25,0,.44,0,.34,0,.43h0a2,2,0,0,1,.75-.89,2.25,2.25,0,0,1,1.19-.28,2,2,0,0,1,1.73.8A4.3,4.3,0,0,1,475.25,121Zm-1.09,0a3.71,3.71,0,0,0-.36-1.89,1.23,1.23,0,0,0-1.12-.57,1.38,1.38,0,0,0-1.28.64,3.8,3.8,0,0,0-.39,1.94,3.33,3.33,0,0,0,.39,1.83,1.42,1.42,0,0,0,1.27.58,1.23,1.23,0,0,0,1.14-.59A3.94,3.94,0,0,0,474.16,121Z"/>
    </g>
    <g>
      <rect x="391.5" y="180.5" width="100" height="40" rx="6" ry="6" style="fill: #dae8fc;stroke: #6c8ebf"/>
      <path d="M404.49,196.24h1v7.9h-1.35l-3-6.62q.09,1,.09,1.49v5.13h-1v-7.9h1.3l3.09,6.67a13,13,0,0,1-.11-1.61Zm8.41,7.25a1.69,1.69,0,0,0,.35,0v.66a3.54,3.54,0,0,1-.81.09,1.07,1.07,0,0,1-.85-.31,1.58,1.58,0,0,1-.3-1h0a2.55,2.55,0,0,1-.9,1,2.45,2.45,0,0,1-1.28.31,1.81,1.81,0,0,1-1.39-.5,2,2,0,0,1-.47-1.38q0-2,2.66-2.07l1.38,0v-.35a1.61,1.61,0,0,0-.31-1.1,1.29,1.29,0,0,0-1-.34,1.59,1.59,0,0,0-1,.25,1.09,1.09,0,0,0-.36.76l-1.1-.1q.27-1.71,2.48-1.71a2.5,2.5,0,0,1,1.76.55,2.06,2.06,0,0,1,.59,1.58v2.73a1.58,1.58,0,0,0,.12.71A.48.48,0,0,0,412.9,203.49ZM411.24,201l-1.11,0a3.21,3.21,0,0,0-1.05.15,1.19,1.19,0,0,0-.57.43,1.32,1.32,0,0,0-.2.77,1.12,1.12,0,0,0,.26.77,1,1,0,0,0,.76.29,1.85,1.85,0,0,0,1-.27,1.87,1.87,0,0,0,.67-.72,2,2,0,0,0,.24-.93Zm6.4.93-.23.69-.21.69-.3-1.08-.1-.31-1.57-4.12h-1.18l2.54,6.34h1.25l2.6-6.34h-1.18Zm7.57-4.14h-2.92v.83h1.87v4.68h-2.47v.83h5.75v-.83h-2.23Zm0-2.36H424v1.13h1.17Zm8,2.36h1q0,.32,0,1.31V204a2.85,2.85,0,0,1-.62,2,2.49,2.49,0,0,1-1.92.67,2.78,2.78,0,0,1-1.58-.4,1.8,1.8,0,0,1-.76-1.16l1.08-.15a1.1,1.1,0,0,0,.43.68,1.46,1.46,0,0,0,.87.24q1.45,0,1.45-1.85v-1.14h0a2.08,2.08,0,0,1-.8.91,2.29,2.29,0,0,1-1.21.31,1.93,1.93,0,0,1-1.7-.76,4.19,4.19,0,0,1-.54-2.39,4.15,4.15,0,0,1,.57-2.44,2,2,0,0,1,1.77-.78,2.12,2.12,0,0,1,1.15.31,2,2,0,0,1,.75.88h0q0-.18,0-.59A3.19,3.19,0,0,1,433.23,197.8Zm-.08,3.11a3.13,3.13,0,0,0-.44-1.78,1.38,1.38,0,0,0-1.21-.65,1.27,1.27,0,0,0-1.16.56,3.62,3.62,0,0,0-.36,1.87,5.19,5.19,0,0,0,.15,1.4,1.37,1.37,0,0,0,.47.75,1.46,1.46,0,0,0,.88.23,1.44,1.44,0,0,0,.88-.28,1.76,1.76,0,0,0,.58-.81A3.6,3.6,0,0,0,433.15,200.91Zm8.56,2.58a1.69,1.69,0,0,0,.35,0v.66a3.54,3.54,0,0,1-.81.09,1.07,1.07,0,0,1-.85-.31,1.58,1.58,0,0,1-.3-1h0a2.55,2.55,0,0,1-.9,1,2.45,2.45,0,0,1-1.28.31,1.81,1.81,0,0,1-1.39-.5,2,2,0,0,1-.47-1.38q0-2,2.66-2.07l1.38,0v-.35a1.61,1.61,0,0,0-.31-1.1,1.29,1.29,0,0,0-1-.34,1.59,1.59,0,0,0-1,.25,1.09,1.09,0,0,0-.36.76l-1.1-.1q.27-1.71,2.48-1.71a2.5,2.5,0,0,1,1.76.55,2.06,2.06,0,0,1,.59,1.58v2.73a1.58,1.58,0,0,0,.12.71A.48.48,0,0,0,441.71,203.49ZM440,201l-1.11,0a3.21,3.21,0,0,0-1.05.15,1.19,1.19,0,0,0-.57.43,1.32,1.32,0,0,0-.2.77,1.12,1.12,0,0,0,.26.77,1,1,0,0,0,.76.29,1.85,1.85,0,0,0,1-.27,1.87,1.87,0,0,0,.67-.72,2,2,0,0,0,.24-.93Zm8.79-.07a4.27,4.27,0,0,1-.59,2.49,2.25,2.25,0,0,1-3.66-.25h0q0,.28,0,.59t0,.38h-1q0-.32,0-1.31v-7.39h1.05v2.48q0,.38,0,.92h0a2,2,0,0,1,2-1.17Q448.84,197.67,448.84,200.94Zm-1.09,0a3.79,3.79,0,0,0-.36-1.9,1.23,1.23,0,0,0-1.13-.59,1.39,1.39,0,0,0-1.27.64,3.75,3.75,0,0,0-.4,1.94,3.38,3.38,0,0,0,.39,1.82,1.4,1.4,0,0,0,1.27.59,1.22,1.22,0,0,0,1.15-.61A3.89,3.89,0,0,0,447.75,201Zm6.22-5.53h-2.75v.83h1.69v7h-2.47v.83h5.75v-.83H454Zm8.59,3.08a3.85,3.85,0,0,1,.71,2.53v.14h-4.52a2.65,2.65,0,0,0,.47,1.67,1.55,1.55,0,0,0,1.29.6,2.09,2.09,0,0,0,1.06-.26,1.28,1.28,0,0,0,.61-.71l.93.26a2,2,0,0,1-.95,1.11,3.3,3.3,0,0,1-1.64.39,2.66,2.66,0,0,1-2.13-.86,3.66,3.66,0,0,1-.74-2.47,3.56,3.56,0,0,1,.73-2.41,2.64,2.64,0,0,1,2.11-.84A2.58,2.58,0,0,1,462.56,198.52Zm-.38,1.86q-.16-1.92-1.69-1.92a1.58,1.58,0,0,0-1.24.51,2.15,2.15,0,0,0-.49,1.41Zm5.92-1.28-.26.82-.15.53q-.28-1-.4-1.35l-1.08-2.87h-1.39v7.9h.94v-5.09l0-1.76q.46,1.44.56,1.71l1,2.57h.8l1-2.57q.18-.5.56-1.71l0,.59q0,.39,0,1.18v5.09h.95v-7.9h-1.32Zm9.62,4.38a1.69,1.69,0,0,0,.35,0v.66a3.54,3.54,0,0,1-.81.09,1.07,1.07,0,0,1-.85-.31,1.58,1.58,0,0,1-.3-1h0a2.55,2.55,0,0,1-.9,1,2.45,2.45,0,0,1-1.28.31,1.81,1.81,0,0,1-1.39-.5,2,2,0,0,1-.47-1.38q0-2,2.66-2.07l1.38,0v-.35a1.61,1.61,0,0,0-.31-1.1,1.29,1.29,0,0,0-1-.34,1.59,1.59,0,0,0-1,.25,1.09,1.09,0,0,0-.36.76l-1.1-.1q.27-1.71,2.48-1.71a2.5,2.5,0,0,1,1.76.55,2.06,2.06,0,0,1,.59,1.58v2.73a1.58,1.58,0,0,0,.12.71A.48.48,0,0,0,477.71,203.49ZM476.05,201l-1.11,0a3.21,3.21,0,0,0-1.05.15,1.19,1.19,0,0,0-.57.43,1.32,1.32,0,0,0-.2.77,1.12,1.12,0,0,0,.26.77,1,1,0,0,0,.76.29,1.85,1.85,0,0,0,1-.27,1.87,1.87,0,0,0,.67-.72,2,2,0,0,0,.24-.93Zm8.79-.07q0,3.32-2.3,3.32a1.93,1.93,0,0,1-1.94-1.08h0a8.46,8.46,0,0,1,0,1v2.48h-1.06v-7.52q0-1,0-1.31h1s0,.07,0,.17,0,.25,0,.44,0,.34,0,.43h0a2,2,0,0,1,.75-.89,2.25,2.25,0,0,1,1.19-.28,2,2,0,0,1,1.73.8A4.3,4.3,0,0,1,484.85,200.94Zm-1.09,0a3.71,3.71,0,0,0-.36-1.89,1.23,1.23,0,0,0-1.12-.57,1.38,1.38,0,0,0-1.28.64,3.8,3.8,0,0,0-.39,1.94,3.33,3.33,0,0,0,.39,1.83,1.42,1.42,0,0,0,1.27.58,1.23,1.23,0,0,0,1.14-.59A3.94,3.94,0,0,0,483.76,200.94Z"/>
    </g>
  </g>
  <g id="legend">
    <rect x="495.02" y="291.37" width="139.98" height="141.63" style="fill: none;stroke: #000"/>
    <g>
      <rect x="509.99" y="393.42" width="105.19" height="24.39" style="fill: #e1d5e7;stroke: #9673a6"/>
      <path d="M552.45,406.22l.77.32a2.45,2.45,0,0,1-2.34,1.81,2.35,2.35,0,0,1-2-.88,4,4,0,0,1-.69-2.52q0-3.34,2.6-3.34a2.26,2.26,0,0,1,2.26,1.63l-.82.32a1.84,1.84,0,0,0-.56-.87,1.33,1.33,0,0,0-.88-.32,1.36,1.36,0,0,0-1.23.63,3.73,3.73,0,0,0-.4,2,3.8,3.8,0,0,0,.42,2,1.4,1.4,0,0,0,1.27.66,1.35,1.35,0,0,0,.89-.33A2.52,2.52,0,0,0,552.45,406.22Zm4.77-5.18h-2.28v.69h1.4v5.82h-2v.69h4.77v-.69h-1.84Zm7.74,6.66a1.38,1.38,0,0,0,.29,0v.54a2.94,2.94,0,0,1-.67.08.89.89,0,0,1-.71-.25,1.31,1.31,0,0,1-.25-.8h0a2.11,2.11,0,0,1-.75.84,2,2,0,0,1-1.06.26,1.5,1.5,0,0,1-1.15-.42,1.62,1.62,0,0,1-.39-1.15q0-1.69,2.2-1.72l1.15,0v-.29a1.33,1.33,0,0,0-.26-.92,1.07,1.07,0,0,0-.82-.28,1.32,1.32,0,0,0-.83.2.9.9,0,0,0-.3.63l-.91-.08q.22-1.42,2.05-1.42a2.07,2.07,0,0,1,1.46.45,1.71,1.71,0,0,1,.49,1.31v2.26a1.3,1.3,0,0,0,.1.58A.4.4,0,0,0,564.95,407.71Zm-1.37-2.05-.92,0a2.67,2.67,0,0,0-.87.13,1,1,0,0,0-.47.36,1.1,1.1,0,0,0-.17.64.92.92,0,0,0,.22.64.8.8,0,0,0,.63.24,1.52,1.52,0,0,0,1.38-.82,1.62,1.62,0,0,0,.2-.77Zm6.39-.08a5.12,5.12,0,0,0-1.14-.38l-.58-.15a1.55,1.55,0,0,1-.65-.28.59.59,0,0,1-.2-.47q0-.73,1.19-.73a1.69,1.69,0,0,1,.87.18.72.72,0,0,1,.34.53l.79-.1a1.4,1.4,0,0,0-.64-.94,2.53,2.53,0,0,0-1.36-.32,2.38,2.38,0,0,0-1.49.4,1.34,1.34,0,0,0-.51,1.12,1.17,1.17,0,0,0,.18.67,1.42,1.42,0,0,0,.53.45,9.37,9.37,0,0,0,1.63.5,1.89,1.89,0,0,1,.73.31.61.61,0,0,1,.24.5q0,.83-1.31.83a2,2,0,0,1-1-.19.91.91,0,0,1-.4-.61l-.77.15a1.49,1.49,0,0,0,.68,1,3,3,0,0,0,1.52.31,2.55,2.55,0,0,0,1.57-.42,1.38,1.38,0,0,0,.57-1.17,1.18,1.18,0,0,0-.2-.7A1.57,1.57,0,0,0,570,405.58Zm6.51.47a1.57,1.57,0,0,0-.55-.47,5.12,5.12,0,0,0-1.14-.38l-.58-.15a1.55,1.55,0,0,1-.65-.28.59.59,0,0,1-.2-.47q0-.73,1.19-.73a1.69,1.69,0,0,1,.87.18.72.72,0,0,1,.34.53l.79-.1a1.4,1.4,0,0,0-.64-.94,2.53,2.53,0,0,0-1.36-.32,2.38,2.38,0,0,0-1.49.4,1.34,1.34,0,0,0-.51,1.12,1.17,1.17,0,0,0,.18.67,1.42,1.42,0,0,0,.53.45,9.37,9.37,0,0,0,1.63.5,1.89,1.89,0,0,1,.73.31.61.61,0,0,1,.24.5q0,.83-1.31.83a2,2,0,0,1-1-.19.91.91,0,0,1-.4-.61l-.77.15a1.49,1.49,0,0,0,.68,1,3,3,0,0,0,1.52.31,2.55,2.55,0,0,0,1.57-.42,1.38,1.38,0,0,0,.57-1.17A1.18,1.18,0,0,0,576.48,406.05Z"/>
    </g>
    <g>
      <rect x="509.07" y="348.35" width="105.19" height="25.68" rx="3.85" ry="3.85" style="fill: #dae8fc;stroke: #6c8ebf"/>
      <path d="M522.8,358.19l-2.48,6.55h1l.66-1.85h2.73l.67,1.85h.94l-2.43-6.55Zm-.61,4,.73-2.05.33-1,.06-.19.28.84.84,2.43Zm7.49-2.78a1.62,1.62,0,0,0-1.62,1h0q0-.45,0-.76v-2.05h-.87v6.12q0,.82,0,1.08H528s0-.14,0-.31,0-.33,0-.49h0a1.86,1.86,0,0,0,3,.21,3.53,3.53,0,0,0,.49-2.06Q531.58,359.38,529.68,359.38Zm.7,4.3a1,1,0,0,1-.95.51,1.16,1.16,0,0,1-1.05-.49,2.8,2.8,0,0,1-.32-1.5,3.11,3.11,0,0,1,.33-1.61,1.15,1.15,0,0,1,1.05-.53,1,1,0,0,1,.93.49,3.14,3.14,0,0,1,.3,1.57A3.22,3.22,0,0,1,530.38,363.69Zm6.82-1.14a1.18,1.18,0,0,1,.2.7,1.38,1.38,0,0,1-.57,1.17,2.56,2.56,0,0,1-1.57.42,3,3,0,0,1-1.52-.31,1.49,1.49,0,0,1-.68-1l.77-.15a.91.91,0,0,0,.4.61,2,2,0,0,0,1,.19q1.31,0,1.31-.83a.61.61,0,0,0-.24-.5,1.9,1.9,0,0,0-.73-.31A9.37,9.37,0,0,1,534,362a1.42,1.42,0,0,1-.53-.45,1.16,1.16,0,0,1-.18-.67,1.34,1.34,0,0,1,.51-1.12,2.38,2.38,0,0,1,1.49-.4,2.52,2.52,0,0,1,1.36.32,1.39,1.39,0,0,1,.64.94l-.79.1a.72.72,0,0,0-.34-.53,1.68,1.68,0,0,0-.87-.18q-1.19,0-1.19.73a.59.59,0,0,0,.2.47,1.55,1.55,0,0,0,.65.28l.58.15a5.11,5.11,0,0,1,1.14.38A1.57,1.57,0,0,1,537.19,362.55Zm4.51,1.55a7.11,7.11,0,0,0,1.44-.17v.66a6.17,6.17,0,0,1-1.63.22,1.79,1.79,0,0,1-1.18-.33,1.3,1.3,0,0,1-.39-1.05v-3.26h-.82v-.69H540l.28-1.37h.58v1.37h2.1v.69h-2.1v3.16a.72.72,0,0,0,.21.57A1,1,0,0,0,541.71,364.1Zm6.54-4.7a6.07,6.07,0,0,1,1,.08v.81a6.16,6.16,0,0,0-1-.09,1.55,1.55,0,0,0-1.26.59,2.28,2.28,0,0,0-.48,1.49v2.47h-.87v-3.4a6.81,6.81,0,0,0-.07-.87,8.53,8.53,0,0,0-.19-1h.83a5.92,5.92,0,0,1,.23,1.21h0a3.06,3.06,0,0,1,.48-.8,1.5,1.5,0,0,1,.55-.38A2.1,2.1,0,0,1,548.25,359.39ZM555.1,364a1.31,1.31,0,0,1-.1-.58v-2.26a1.71,1.71,0,0,0-.49-1.31,2.07,2.07,0,0,0-1.46-.45q-1.83,0-2.05,1.42l.91.08a.9.9,0,0,1,.3-.63,1.32,1.32,0,0,1,.83-.2,1.07,1.07,0,0,1,.82.28,1.33,1.33,0,0,1,.26.91v.29l-1.15,0q-2.2,0-2.2,1.72a1.62,1.62,0,0,0,.39,1.15,1.5,1.5,0,0,0,1.16.42,2,2,0,0,0,1.06-.26,2.11,2.11,0,0,0,.74-.84h0a1.31,1.31,0,0,0,.25.8.89.89,0,0,0,.71.25,2.94,2.94,0,0,0,.67-.08v-.54l-.29,0A.4.4,0,0,1,555.1,364Zm-1-1.42a1.62,1.62,0,0,1-.2.77,1.55,1.55,0,0,1-.56.6,1.53,1.53,0,0,1-.83.22.8.8,0,0,1-.63-.24.93.93,0,0,1-.22-.64,1.1,1.1,0,0,1,.17-.64,1,1,0,0,1,.47-.36,2.66,2.66,0,0,1,.87-.13l.92,0Zm6.31.54.92.06a1.77,1.77,0,0,1-.35.85,2,2,0,0,1-.76.6,2.54,2.54,0,0,1-1.06.22,2.3,2.3,0,0,1-1.81-.7,3.59,3.59,0,0,1,0-4,2.3,2.3,0,0,1,1.81-.7,2.38,2.38,0,0,1,1.46.42,1.78,1.78,0,0,1,.71,1.14l-.93.07a1.12,1.12,0,0,0-.39-.7,1.36,1.36,0,0,0-.88-.25,1.31,1.31,0,0,0-1.12.48,2.6,2.6,0,0,0-.36,1.54,2.74,2.74,0,0,0,.36,1.57,1.28,1.28,0,0,0,1.12.5,1.41,1.41,0,0,0,.87-.26A1.15,1.15,0,0,0,560.43,363.12Zm5.14,1a7.11,7.11,0,0,0,1.44-.17v.66a6.17,6.17,0,0,1-1.63.22,1.79,1.79,0,0,1-1.18-.33,1.3,1.3,0,0,1-.39-1.05v-3.26H563v-.69h.83l.28-1.37h.58v1.37h2.1v.69h-2.1v3.16a.72.72,0,0,0,.21.57A1,1,0,0,0,565.57,364.1Zm13.21-1.38.77.32a2.45,2.45,0,0,1-2.34,1.81,2.34,2.34,0,0,1-2-.88,4,4,0,0,1-.69-2.52q0-3.34,2.6-3.34a2.26,2.26,0,0,1,2.26,1.63l-.82.32a1.84,1.84,0,0,0-.56-.87,1.33,1.33,0,0,0-.88-.32,1.36,1.36,0,0,0-1.23.63,3.73,3.73,0,0,0-.4,2,3.8,3.8,0,0,0,.41,2,1.39,1.39,0,0,0,1.27.66,1.35,1.35,0,0,0,.89-.33A2.53,2.53,0,0,0,578.77,362.72Zm4.77,1.33h1.84v.69h-4.77v-.69h2v-5.82h-1.4v-.69h2.28Zm7.35,0a1.31,1.31,0,0,1-.1-.58v-2.26a1.71,1.71,0,0,0-.49-1.31,2.07,2.07,0,0,0-1.46-.45q-1.83,0-2.05,1.42l.91.08a.9.9,0,0,1,.3-.63,1.32,1.32,0,0,1,.83-.2,1.07,1.07,0,0,1,.82.28,1.33,1.33,0,0,1,.26.91v.29l-1.15,0q-2.2,0-2.2,1.72a1.62,1.62,0,0,0,.39,1.15,1.5,1.5,0,0,0,1.16.42,2,2,0,0,0,1.06-.26,2.11,2.11,0,0,0,.74-.84h0a1.31,1.31,0,0,0,.25.8.89.89,0,0,0,.71.25,2.94,2.94,0,0,0,.67-.08v-.54l-.29,0A.4.4,0,0,1,590.89,364Zm-1-1.42a1.62,1.62,0,0,1-.2.77,1.55,1.55,0,0,1-.56.6,1.53,1.53,0,0,1-.83.22.8.8,0,0,1-.63-.24.93.93,0,0,1-.22-.64,1.1,1.1,0,0,1,.17-.64,1,1,0,0,1,.47-.36,2.66,2.66,0,0,1,.87-.13l.92,0Zm6.94,0a1.18,1.18,0,0,1,.2.7,1.38,1.38,0,0,1-.57,1.17,2.56,2.56,0,0,1-1.57.42,3,3,0,0,1-1.52-.31,1.49,1.49,0,0,1-.68-1l.77-.15a.91.91,0,0,0,.4.61,2,2,0,0,0,1,.19q1.31,0,1.31-.83a.61.61,0,0,0-.24-.5,1.9,1.9,0,0,0-.73-.31,9.37,9.37,0,0,1-1.63-.5,1.42,1.42,0,0,1-.53-.45,1.16,1.16,0,0,1-.18-.67,1.34,1.34,0,0,1,.51-1.12,2.38,2.38,0,0,1,1.49-.4,2.52,2.52,0,0,1,1.36.32,1.39,1.39,0,0,1,.64.94l-.79.1a.72.72,0,0,0-.34-.53,1.68,1.68,0,0,0-.87-.18q-1.19,0-1.19.73a.59.59,0,0,0,.2.47,1.55,1.55,0,0,0,.65.28l.58.15a5.11,5.11,0,0,1,1.14.38A1.57,1.57,0,0,1,596.84,362.55Zm6.16.7a1.38,1.38,0,0,1-.57,1.17,2.56,2.56,0,0,1-1.57.42,3,3,0,0,1-1.52-.31,1.49,1.49,0,0,1-.68-1l.77-.15a.91.91,0,0,0,.4.61,2,2,0,0,0,1,.19q1.31,0,1.31-.83a.61.61,0,0,0-.24-.5,1.9,1.9,0,0,0-.73-.31,9.37,9.37,0,0,1-1.63-.5,1.42,1.42,0,0,1-.53-.45,1.16,1.16,0,0,1-.18-.67,1.34,1.34,0,0,1,.51-1.12,2.38,2.38,0,0,1,1.49-.4,2.52,2.52,0,0,1,1.36.32,1.39,1.39,0,0,1,.64.94l-.79.1a.72.72,0,0,0-.34-.53,1.68,1.68,0,0,0-.87-.18q-1.19,0-1.19.73a.59.59,0,0,0,.2.47,1.55,1.55,0,0,0,.65.28l.58.15a5.11,5.11,0,0,1,1.14.38,1.57,1.57,0,0,1,.55.47A1.18,1.18,0,0,1,603,363.24Z"/>
    </g>
    <g>
      <ellipse cx="562.29" cy="319.5" rx="52.6" ry="12.42" style="fill: #fff2cc;stroke: #d6b656"/>
      <path d="M536.27,316.51h4v.76h-1.53v5h1.53v.76h-4v-.76h1.53v-5h-1.53Zm8.41,1.2a1.75,1.75,0,0,0-1.68,1h0q0-.38,0-.52v-.25a1.28,1.28,0,0,0,0-.13h-.83q0,.2,0,1.12v4.13H543v-3a1.74,1.74,0,0,1,.39-1.19,1.26,1.26,0,0,1,1-.44,1,1,0,0,1,.81.32,1.56,1.56,0,0,1,.25,1v3.37h.88v-3.5a2,2,0,0,0-.41-1.4A1.61,1.61,0,0,0,544.68,317.7Zm5.36,4.52a.72.72,0,0,1-.21-.57v-3.16h2.1v-.69h-2.1v-1.37h-.58L549,317.8h-.83v.69H549v3.26a1.3,1.3,0,0,0,.39,1.05,1.79,1.79,0,0,0,1.18.33,6.17,6.17,0,0,0,1.63-.22v-.66a7.11,7.11,0,0,1-1.44.17A1,1,0,0,1,550,322.22Zm7.87-3.82a3.18,3.18,0,0,1,.59,2.1v.12h-3.75a2.19,2.19,0,0,0,.39,1.38,1.28,1.28,0,0,0,1.07.5,1.73,1.73,0,0,0,.88-.22,1.06,1.06,0,0,0,.5-.59l.77.22a1.67,1.67,0,0,1-.78.92,2.74,2.74,0,0,1-1.36.32,2.2,2.2,0,0,1-1.76-.71,3,3,0,0,1-.62-2,3,3,0,0,1,.6-2,2.18,2.18,0,0,1,1.74-.7A2.14,2.14,0,0,1,557.9,318.4Zm-.32,1.54q-.14-1.59-1.4-1.59a1.31,1.31,0,0,0-1,.42,1.78,1.78,0,0,0-.4,1.17Zm4.85-2.11a1.5,1.5,0,0,0-.55.38,3.06,3.06,0,0,0-.48.8h0a5.92,5.92,0,0,0-.23-1.21h-.83a8.53,8.53,0,0,1,.19,1,6.81,6.81,0,0,1,.07.87v3.4h.87v-2.47a2.28,2.28,0,0,1,.48-1.49,1.55,1.55,0,0,1,1.26-.59,6.16,6.16,0,0,1,1,.09v-.81a6.07,6.07,0,0,0-1-.08A2.1,2.1,0,0,0,562.44,317.83Zm6.64-2a2.33,2.33,0,0,0-1.56.42,1.82,1.82,0,0,0-.47,1.41v.12h-1.27v.69h1.27v4.56h.87v-4.56h2.38v-.69h-2.38v0a1.69,1.69,0,0,1,.12-.7.72.72,0,0,1,.38-.36,2,2,0,0,1,.76-.11l.67,0,.59.05V316a6,6,0,0,0-.61-.07Zm7.34,6.66.29,0V323a2.94,2.94,0,0,1-.67.08.89.89,0,0,1-.71-.25,1.31,1.31,0,0,1-.25-.8h0a2.11,2.11,0,0,1-.74.84,2,2,0,0,1-1.06.26,1.5,1.5,0,0,1-1.16-.42,1.62,1.62,0,0,1-.39-1.15q0-1.69,2.2-1.72l1.15,0v-.29a1.33,1.33,0,0,0-.26-.91,1.07,1.07,0,0,0-.82-.28,1.32,1.32,0,0,0-.83.2.9.9,0,0,0-.3.63l-.91-.08q.22-1.42,2.05-1.42a2.07,2.07,0,0,1,1.46.45,1.71,1.71,0,0,1,.49,1.31v2.26a1.31,1.31,0,0,0,.1.58A.4.4,0,0,0,576.42,322.51ZM575,320.46l-.92,0a2.66,2.66,0,0,0-.87.13,1,1,0,0,0-.47.36,1.1,1.1,0,0,0-.17.64.93.93,0,0,0,.22.64.8.8,0,0,0,.63.24,1.53,1.53,0,0,0,.83-.22,1.55,1.55,0,0,0,.56-.6,1.62,1.62,0,0,0,.2-.77Zm5.89,1.76a1.41,1.41,0,0,1-.87.26,1.28,1.28,0,0,1-1.12-.5,2.74,2.74,0,0,1-.36-1.57,2.6,2.6,0,0,1,.36-1.54,1.31,1.31,0,0,1,1.12-.48,1.36,1.36,0,0,1,.88.25,1.12,1.12,0,0,1,.39.7l.93-.07a1.78,1.78,0,0,0-.71-1.14,2.38,2.38,0,0,0-1.46-.42,2.3,2.3,0,0,0-1.81.7,3.59,3.59,0,0,0,0,4,2.3,2.3,0,0,0,1.81.7,2.54,2.54,0,0,0,1.06-.22,2,2,0,0,0,.76-.6,1.77,1.77,0,0,0,.35-.85l-.92-.06A1.15,1.15,0,0,1,580.93,322.22Zm7.38-1.61h-3.75A2.19,2.19,0,0,0,585,322a1.28,1.28,0,0,0,1.07.5,1.73,1.73,0,0,0,.88-.22,1.06,1.06,0,0,0,.5-.59l.77.22a1.67,1.67,0,0,1-.78.92,2.74,2.74,0,0,1-1.36.32,2.2,2.2,0,0,1-1.76-.71,3,3,0,0,1-.62-2,3,3,0,0,1,.6-2,2.18,2.18,0,0,1,1.74-.7,2.14,2.14,0,0,1,1.73.69,3.18,3.18,0,0,1,.59,2.1Zm-.9-.67q-.14-1.59-1.4-1.59a1.31,1.31,0,0,0-1,.42,1.78,1.78,0,0,0-.4,1.17Z"/>
    </g>
  </g>
  <g>
    <ellipse cx="281.5" cy="40.5" rx="60" ry="20" style="fill: #fff2cc;stroke: #d6b656"/>
    <path d="M276.62,33.74h1.32v7.9H277V36.55q0-.79,0-1.18l0-.59q-.37,1.21-.56,1.71l-1,2.57h-.8l-1-2.57q-.11-.27-.56-1.71l0,1.76v5.09h-.94v-7.9h1.39l1.08,2.87q.12.31.4,1.35l.15-.53.26-.82ZM285.15,41a1.69,1.69,0,0,0,.35,0v.66a3.54,3.54,0,0,1-.81.09,1.07,1.07,0,0,1-.85-.31,1.58,1.58,0,0,1-.3-1h0a2.55,2.55,0,0,1-.9,1,2.45,2.45,0,0,1-1.28.31,1.81,1.81,0,0,1-1.39-.5,2,2,0,0,1-.47-1.38q0-2,2.66-2.07l1.38,0v-.35a1.61,1.61,0,0,0-.31-1.1,1.29,1.29,0,0,0-1-.34,1.59,1.59,0,0,0-1,.25,1.09,1.09,0,0,0-.36.76l-1.1-.1q.27-1.71,2.48-1.71a2.5,2.5,0,0,1,1.76.55,2.06,2.06,0,0,1,.59,1.58V40a1.58,1.58,0,0,0,.12.71A.48.48,0,0,0,285.15,41Zm-1.66-2.48-1.11,0a3.21,3.21,0,0,0-1.05.15,1.19,1.19,0,0,0-.57.43,1.32,1.32,0,0,0-.2.77,1.12,1.12,0,0,0,.26.77,1,1,0,0,0,.76.29,1.85,1.85,0,0,0,1-.27,1.87,1.87,0,0,0,.67-.72,2,2,0,0,0,.24-.93Zm8.79-.07q0,3.32-2.3,3.32a1.93,1.93,0,0,1-1.94-1.08h0a8.46,8.46,0,0,1,0,1v2.48H287V36.61q0-1,0-1.31h1s0,.07,0,.17,0,.25,0,.44,0,.34,0,.43h0a2,2,0,0,1,.75-.89,2.25,2.25,0,0,1,1.19-.28,2,2,0,0,1,1.73.8A4.3,4.3,0,0,1,292.29,38.44Zm-1.09,0a3.71,3.71,0,0,0-.36-1.89,1.23,1.23,0,0,0-1.12-.57,1.38,1.38,0,0,0-1.28.64,3.8,3.8,0,0,0-.39,1.94,3.33,3.33,0,0,0,.39,1.83,1.42,1.42,0,0,0,1.27.58,1.23,1.23,0,0,0,1.14-.59A3.94,3.94,0,0,0,291.2,38.44Z"/>
  </g>
  <path d="M563.91,33.41h2.64V49.22h-1.9V39.05q0-1.58,0-2.36l0-1.17q-.75,2.41-1.11,3.41l-1.92,5.13h-1.61l-1.95-5.13q-.21-.54-1.12-3.41l0,3.53V49.22h-1.87V33.41H558l2.17,5.73q.25.62.8,2.71l.3-1.05.52-1.64ZM581,47.92a3.37,3.37,0,0,0,.69-.08v1.31a7.09,7.09,0,0,1-1.63.19,2.14,2.14,0,0,1-1.71-.62,3.17,3.17,0,0,1-.6-1.93h-.07a5.1,5.1,0,0,1-1.8,2,4.9,4.9,0,0,1-2.56.62,3.63,3.63,0,0,1-2.79-1,3.9,3.9,0,0,1-.94-2.77q0-4.09,5.32-4.15l2.77,0V40.8a3.21,3.21,0,0,0-.62-2.21,2.58,2.58,0,0,0-2-.67,3.19,3.19,0,0,0-2,.49,2.18,2.18,0,0,0-.73,1.52l-2.2-.2q.54-3.42,5-3.42a5,5,0,0,1,3.52,1.1,4.12,4.12,0,0,1,1.18,3.17V46a3.17,3.17,0,0,0,.25,1.41A1,1,0,0,0,581,47.92Zm-3.32-5-2.23,0a6.42,6.42,0,0,0-2.11.3,2.39,2.39,0,0,0-1.13.86,2.65,2.65,0,0,0-.4,1.54,2.24,2.24,0,0,0,.52,1.55,1.94,1.94,0,0,0,1.53.59,3.69,3.69,0,0,0,2-.54,3.74,3.74,0,0,0,1.35-1.44,3.92,3.92,0,0,0,.48-1.86Zm17.59-.14q0,6.63-4.59,6.63a3.85,3.85,0,0,1-3.88-2.16h-.06a16.92,16.92,0,0,1,0,1.95v5h-2.12v-15q0-2-.07-2.62h2.05s0,.15,0,.35,0,.49.05.88,0,.67,0,.86h0a4.06,4.06,0,0,1,1.49-1.79,4.49,4.49,0,0,1,2.37-.56,4,4,0,0,1,3.46,1.6A8.6,8.6,0,0,1,595.25,42.83Zm-2.18,0a7.41,7.41,0,0,0-.71-3.78,2.47,2.47,0,0,0-2.25-1.13,2.76,2.76,0,0,0-2.55,1.28,7.6,7.6,0,0,0-.79,3.88,6.65,6.65,0,0,0,.79,3.66,2.83,2.83,0,0,0,2.53,1.16,2.46,2.46,0,0,0,2.27-1.18A7.89,7.89,0,0,0,593.07,42.83Z"/>
</svg>
